<?xml version="1.0" standalone="no"?>
<!DOCTYPE svg PUBLIC "-//W3C//DTD SVG 20010904//EN"
 "http://www.w3.org/TR/2001/REC-SVG-20010904/DTD/svg10.dtd">
<svg version="1.0" xmlns="http://www.w3.org/2000/svg"
 width="640.000000pt" height="480.000000pt" viewBox="0 0 640.000000 480.000000"
 preserveAspectRatio="xMidYMid meet">

<g transform="translate(0.000000,480.000000) scale(0.100000,-0.100000)"
fill="#000000" stroke="none">
<path d="M0 4781 c0 -5 6 -12 13 -14 6 -3 8 -6 2 -6 -7 -1 -9 -644 -8 -1913 2
-1052 3 -1913 4 -1913 0 0 0 -22 -1 -50 -1 -27 -4 -237 -6 -465 l-5 -415 3198
3 c1759 2 3200 6 3203 9 2 2 -2 8 -10 13 -8 6 -10 10 -4 10 16 0 20 1545 5
1555 -8 4 -8 12 -1 26 8 14 7 19 -1 19 -8 0 -8 4 1 15 10 12 10 15 -4 15 -9 0
-16 -4 -16 -9 0 -5 -7 -11 -14 -14 -10 -4 -13 -1 -9 9 3 7 1 14 -5 14 -6 0
-12 -5 -14 -11 -2 -7 -8 -6 -16 4 -10 12 -7 14 21 12 19 -2 39 0 45 4 16 9 22
3079 7 3085 -5 3 -4 5 3 5 6 1 12 6 12 11 0 7 -1073 10 -3200 10 -1933 0
-3200 -4 -3200 -9z m3089 -717 c10 -9 -45 -3 -59 6 -11 7 -5 8 20 4 19 -4 37
-8 39 -10z m328 -6 c-3 -8 -6 -5 -6 6 -1 11 2 17 5 13 3 -3 4 -12 1 -19z
m-193 -3 c-4 -8 -8 -15 -10 -15 -2 0 -4 7 -4 15 0 8 4 15 10 15 5 0 7 -7 4
-15z m-29 -5 c4 -6 -1 -7 -11 -3 -13 5 -15 3 -9 -8 22 -34 13 -46 -39 -53 -88
-10 -96 -9 -96 19 0 20 5 25 25 25 14 0 25 4 25 9 0 5 9 7 19 4 11 -3 28 0 38
6 23 13 40 14 48 1z m-280 -10 c3 -5 1 -10 -4 -10 -6 0 -11 5 -11 10 0 6 2 10
4 10 3 0 8 -4 11 -10z m148 3 c-7 -2 -19 -2 -25 0 -7 3 -2 5 12 5 14 0 19 -2
13 -5z m312 -18 c0 -18 -8 -20 -64 -23 -82 -4 -95 1 -81 28 10 18 19 21 78 18
59 -3 67 -5 67 -23z m192 19 c-3 -3 -12 -4 -19 -1 -8 3 -5 6 6 6 11 1 17 -2
13 -5z m-561 -19 c10 -8 15 -14 9 -14 -5 0 -19 6 -29 14 -11 8 -15 15 -10 15
6 0 19 -7 30 -15z m551 -2 c8 -3 13 -15 11 -27 -3 -22 -10 -23 -101 -14 -37 3
-56 25 -41 49 6 11 97 5 131 -8z m-572 -19 c21 -22 7 -38 -53 -58 -47 -15 -85
-13 -109 6 -18 14 6 36 31 30 10 -3 17 -1 14 4 -3 5 10 10 29 11 20 1 41 7 46
12 15 15 23 14 42 -5z m714 -17 c46 -14 70 -40 49 -53 -14 -9 -71 -13 -62 -5
3 3 -11 11 -33 17 -27 8 -39 17 -41 32 -4 26 20 29 87 9z m-889 -1 c0 -3 -4
-8 -10 -11 -5 -3 -10 -1 -10 4 0 6 5 11 10 11 6 0 10 -2 10 -4z m1077 -2 c-3
-3 -12 -4 -19 -1 -8 3 -5 6 6 6 11 1 17 -2 13 -5z m-1117 -14 c0 -5 -4 -10 -9
-10 -6 0 -13 5 -16 10 -3 6 1 10 9 10 9 0 16 -4 16 -10z m275 -10 c3 -5 1 -10
-4 -10 -6 0 -11 5 -11 10 0 6 2 10 4 10 3 0 8 -4 11 -10z m-237 -17 c13 -22
-3 -38 -66 -61 -36 -14 -54 -16 -61 -9 -17 17 -13 33 14 51 14 9 25 14 25 12
0 -3 15 1 33 9 41 18 44 18 55 -2z m206 1 c5 -14 4 -15 -9 -4 -17 14 -19 20
-6 20 5 0 12 -7 15 -16z m503 10 c-3 -3 -12 -4 -19 -1 -8 3 -5 6 6 6 11 1 17
-2 13 -5z m40 0 c-3 -3 -12 -4 -19 -1 -8 3 -5 6 6 6 11 1 17 -2 13 -5z m-360
-10 c-3 -3 -12 -4 -19 -1 -8 3 -5 6 6 6 11 1 17 -2 13 -5z m683 -24 c59 -30
70 -42 50 -55 -6 -4 -8 -11 -4 -16 3 -5 10 -6 16 -3 7 4 8 2 4 -4 -5 -8 -13
-8 -24 -2 -9 5 -43 20 -74 35 -67 29 -79 60 -30 74 1 1 29 -13 62 -29z m-889
2 c-7 -2 -18 1 -23 6 -8 8 -4 9 13 5 13 -4 18 -8 10 -11z m522 11 c-7 -2 -19
-2 -25 0 -7 3 -2 5 12 5 14 0 19 -2 13 -5z m84 1 c-3 -3 -12 -4 -19 -1 -8 3
-5 6 6 6 11 1 17 -2 13 -5z m40 0 c-3 -3 -12 -4 -19 -1 -8 3 -5 6 6 6 11 1 17
-2 13 -5z m-980 -22 c-13 -15 -14 -21 -4 -32 10 -10 9 -12 -5 -7 -14 5 -18 1
-18 -19 0 -16 -8 -28 -25 -36 -13 -6 -22 -15 -18 -21 3 -6 1 -7 -6 -3 -6 4
-28 -2 -47 -13 -19 -12 -32 -16 -29 -11 4 6 2 16 -4 23 -5 7 -7 17 -3 23 10
16 96 64 114 64 8 0 21 11 28 25 7 14 18 25 23 25 6 0 3 -8 -6 -18z m-120 -8
c-3 -3 -12 -4 -19 -1 -8 3 -5 6 6 6 11 1 17 -2 13 -5z m31 -19 c-3 -3 -9 2
-12 12 -6 14 -5 15 5 6 7 -7 10 -15 7 -18z m116 -34 c4 -5 -3 -7 -14 -4 -23 6
-26 13 -6 13 8 0 17 -4 20 -9z m1370 -18 c66 -41 61 -98 -5 -62 -15 8 -25 7
-37 -3 -15 -12 -16 -11 -3 5 7 9 9 17 4 17 -18 0 -52 40 -47 55 9 22 37 18 88
-12z m-84 -44 c0 -6 -4 -7 -10 -4 -5 3 -10 11 -10 16 0 6 5 7 10 4 6 -3 10
-11 10 -16z m157 -1 c-3 -8 -6 -5 -6 6 -1 11 2 17 5 13 3 -3 4 -12 1 -19z
m-1661 -33 c-4 -14 -2 -25 4 -25 5 0 10 -5 10 -11 0 -8 -5 -8 -15 1 -12 10
-20 9 -40 -4 -29 -19 -33 -28 -7 -19 9 3 14 3 10 -1 -11 -13 -86 -17 -93 -6
-4 6 -3 19 1 28 4 9 8 22 8 27 1 6 11 9 23 8 11 -1 27 4 33 12 7 8 26 15 42
15 27 0 30 -3 24 -25z m94 15 c-8 -5 -19 -10 -25 -10 -5 0 -3 5 5 10 8 5 20
10 25 10 6 0 3 -5 -5 -10z m50 0 c-8 -5 -19 -10 -25 -10 -5 0 -3 5 5 10 8 5
20 10 25 10 6 0 3 -5 -5 -10z m1605 -41 c64 -46 66 -67 5 -83 -17 -5 -21 -4
-11 2 16 12 -3 27 -21 16 -7 -4 -8 -3 -4 5 4 7 -5 18 -23 29 -29 16 -39 40
-24 55 13 14 35 6 78 -24z m-105 11 c0 -5 -4 -10 -10 -10 -5 0 -10 5 -10 10 0
6 5 10 10 10 6 0 10 -4 10 -10z m-1639 -47 c13 -15 12 -15 -8 -4 -24 12 -29
21 -14 21 5 0 15 -7 22 -17z m1845 -30 c-6 -6 -36 9 -36 18 0 5 9 4 20 -3 10
-7 18 -14 16 -15z m-2131 -1 c-3 -3 -11 0 -18 7 -9 10 -8 11 6 5 10 -3 15 -9
12 -12z m125 -13 c0 -5 -14 -21 -31 -36 -18 -16 -38 -34 -45 -41 -8 -8 -22
-12 -31 -10 -30 6 -26 36 9 67 18 17 28 31 22 31 -6 0 -19 -9 -29 -20 -10 -11
-23 -20 -29 -20 -6 0 3 11 19 25 17 13 37 22 45 20 8 -3 22 0 30 5 15 9 40 -4
40 -21z m2030 -16 c41 -28 70 -61 70 -78 0 -21 -47 -38 -68 -25 -14 9 -12 10
8 4 22 -6 23 -5 11 10 -8 9 -21 14 -30 11 -8 -3 -12 -3 -8 1 4 4 -5 20 -19 35
-23 24 -25 31 -14 44 16 19 20 19 50 -2z m51 0 c13 -15 12 -15 -8 -4 -24 12
-29 21 -14 21 5 0 15 -7 22 -17z m625 -11 c-204 -1 -373 1 -377 5 -5 5 162 6
369 3 l377 -5 -369 -3z m-3253 1 c-90 -2 -236 -2 -325 0 -90 1 -17 3 162 3
179 0 252 -2 163 -3z m2844 1 c-3 -3 -12 -4 -19 -1 -8 3 -5 6 6 6 11 1 17 -2
13 -5z m-3453 -19 c-4 -8 -11 -15 -16 -15 -6 0 -5 6 2 15 7 8 14 15 16 15 2 0
1 -7 -2 -15z m942 -25 c-3 -11 -8 -30 -12 -42 -5 -23 -5 -23 13 -3 20 23 48
22 58 -3 4 -11 -7 -28 -37 -55 l-43 -39 -3 41 c-3 39 13 121 24 121 3 0 3 -9
0 -20z m44 0 c0 -5 -4 -10 -10 -10 -5 0 -10 5 -10 10 0 6 5 10 10 10 6 0 10
-4 10 -10z m2165 -18 c-3 -3 -11 0 -18 7 -9 10 -8 11 6 5 10 -3 15 -9 12 -12z
m132 -14 c-3 -7 -5 -2 -5 12 0 14 2 19 5 13 2 -7 2 -19 0 -25z m30 0 c-3 -7
-5 -2 -5 12 0 14 2 19 5 13 2 -7 2 -19 0 -25z m1043 16 c0 -8 -5 -12 -10 -9
-6 4 -8 11 -5 16 9 14 15 11 15 -7z m-3340 -4 c0 -5 -2 -10 -4 -10 -3 0 -8 5
-11 10 -3 6 -1 10 4 10 6 0 11 -4 11 -10z m2100 -10 c0 -5 -2 -10 -4 -10 -3 0
-8 5 -11 10 -3 6 -1 10 4 10 6 0 11 -4 11 -10z m236 -20 c0 -11 -4 -20 -8 -20
-10 0 -11 24 -1 33 9 9 9 10 9 -13z m-3429 -1092 c-1 -200 -2 -37 -2 362 0
399 1 562 2 363 2 -200 2 -526 0 -725z m3413 1065 c14 -12 20 -30 20 -57 l0
-40 -29 28 c-16 16 -33 26 -38 23 -7 -5 -10 25 -4 56 2 13 30 7 51 -10z m987
-225 c-1 -46 -3 -9 -3 82 0 91 2 128 3 83 2 -46 2 -120 0 -165z m-1057 182 c0
-5 -5 -10 -11 -10 -5 0 -7 5 -4 10 3 6 8 10 11 10 2 0 4 -4 4 -10z m-2777 -7
c-23 -2 -64 -2 -90 0 -26 2 -7 3 42 3 50 0 71 -1 48 -3z m3390 0 c-24 -2 -62
-2 -85 0 -24 2 -5 4 42 4 47 0 66 -2 43 -4z m474 -135 c-2 -24 -4 -5 -4 42 0
47 2 66 4 43 2 -24 2 -62 0 -85z m-3509 -620 l-3 -683 -255 -2 c-192 -2 -256
-6 -261 -15 -7 -14 -70 -253 -73 -278 -1 -8 -5 -27 -9 -42 -17 -70 -18 -80 -5
-72 7 4 5 -2 -4 -13 -19 -21 -24 -68 -9 -77 5 -4 11 -3 14 1 2 5 2 2 0 -5 -2
-8 5 -26 16 -40 26 -38 23 -149 -7 -216 -12 -27 -22 -54 -22 -61 0 -8 -3 -15
-7 -17 -5 -1 -24 -33 -42 -70 -19 -38 -39 -68 -43 -68 -4 0 -8 -6 -8 -13 0 -7
-34 -57 -75 -111 -56 -74 -72 -102 -63 -108 10 -7 9 -8 -3 -6 -10 2 -35 -22
-66 -63 l-51 -67 24 -11 c18 -8 22 -15 16 -28 -5 -10 -23 -48 -40 -85 l-32
-67 -52 24 c-61 27 -460 205 -623 277 -60 27 -132 59 -160 70 -27 12 -53 27
-57 32 -10 15 -10 38 0 32 4 -2 18 22 31 55 26 67 37 76 81 61 l30 -11 1 187
c0 251 11 304 108 537 17 41 116 240 126 253 6 7 16 19 23 28 8 8 12 20 9 27
-4 10 11 12 60 10 70 -4 116 -26 128 -63 4 -11 11 -18 16 -14 5 3 7 9 5 13 -3
3 11 17 30 30 18 13 32 26 30 30 -2 3 18 4 45 3 27 -2 56 1 63 7 14 12 46 5
46 -10 0 -13 -14 -11 -28 3 -8 8 -12 9 -12 1 0 -6 14 -25 30 -41 17 -17 30
-41 30 -54 0 -19 4 -17 23 17 25 44 57 65 103 65 41 0 95 -37 116 -80 l18 -34
10 29 c15 42 13 49 -13 50 l-22 0 -3 683 -2 682 410 0 410 0 -2 -682z m2480
651 l32 -31 0 -174 c0 -96 -2 -174 -5 -174 -2 0 -24 21 -47 46 -111 119 -130
138 -124 121 3 -11 2 -16 -5 -12 -5 4 -8 12 -6 18 2 6 -7 27 -21 47 -20 29
-23 44 -19 85 4 41 10 54 38 77 49 41 113 40 157 -3z m912 -648 l0 -679 -27
-7 c-16 -4 -184 -5 -375 -4 l-348 3 -31 -42 c-36 -49 -93 -72 -134 -54 -43 20
-133 96 -147 125 -7 15 -16 27 -19 27 -3 0 -5 10 -4 23 1 12 3 28 4 35 0 7 20
33 42 57 28 31 50 45 67 45 25 0 25 0 6 19 -13 12 -21 15 -26 7 -5 -7 -8 -6
-8 3 0 8 -16 27 -35 44 -19 16 -40 46 -46 67 -10 33 -9 41 17 81 32 51 49 66
86 74 28 7 28 7 -32 57 -33 27 -63 61 -66 74 -10 39 4 87 37 127 28 34 35 37
80 37 44 0 53 -4 96 -46 l48 -45 3 325 2 326 405 0 405 0 0 -679z m-1120 610
c0 -6 -5 -13 -10 -16 -6 -4 -7 -11 -4 -17 4 -6 2 -8 -4 -5 -12 8 -4 47 9 47 5
0 9 -4 9 -9z m1371 -67 c7 -9 14 -23 15 -33 2 -9 8 -54 14 -101 6 -47 14 -96
17 -110 4 -14 7 -38 8 -55 5 -75 28 -224 34 -221 3 2 7 -18 8 -44 2 -27 14
-79 28 -115 13 -36 27 -89 31 -116 4 -28 10 -46 13 -41 3 6 6 -70 6 -168 0
-98 -3 -173 -7 -167 -5 8 -8 4 -8 -8 0 -11 -3 -31 -7 -44 -5 -18 -3 -22 7 -16
9 5 11 4 6 -3 -9 -15 99 -172 118 -172 3 0 24 19 47 42 28 28 40 36 36 23 -4
-15 8 -32 54 -70 58 -49 69 -67 49 -80 -6 -4 -39 -39 -73 -79 -34 -40 -134
-153 -221 -252 -88 -98 -196 -219 -240 -269 -107 -120 -104 -118 -130 -94 -11
11 -40 35 -63 52 -49 37 -53 54 -18 87 24 23 24 23 5 37 -11 8 -26 11 -33 7
-6 -4 -9 -4 -5 1 11 11 -29 38 -44 29 -6 -4 -8 -3 -5 3 4 6 -19 28 -51 49 -31
21 -63 45 -71 52 -7 7 -23 10 -35 7 -16 -5 -18 -4 -6 4 8 5 12 12 10 14 -36
28 -72 47 -81 41 -7 -4 -9 -3 -5 4 3 6 1 15 -6 21 -20 15 -130 110 -157 134
-13 12 -31 21 -40 19 -12 -2 -13 -1 -3 6 10 7 4 18 -27 44 -23 19 -41 40 -41
46 0 9 83 12 314 12 l314 0 31 29 c17 16 31 40 32 53 4 90 -2 169 -15 205 -45
127 -48 468 -5 593 20 58 23 91 28 317 l6 252 29 30 c16 17 48 37 70 45 53 19
51 19 67 0z m-1394 -36 c-3 -7 -5 -2 -5 12 0 14 2 19 5 13 2 -7 2 -19 0 -25z
m108 -138 c3 -5 1 -10 -4 -10 -6 0 -11 5 -11 10 0 6 2 10 4 10 3 0 8 -4 11
-10z m-458 -125 c30 -66 63 -140 73 -165 10 -25 28 -67 41 -95 20 -45 22 -64
21 -250 0 -110 0 -206 -1 -212 -1 -10 -165 -13 -783 -13 l-783 0 2 177 c3 228
7 281 26 318 26 52 75 167 103 243 15 39 31 72 36 72 4 0 8 8 8 18 0 10 3 22
7 25 3 4 274 6 601 5 l595 -3 54 -120z m553 55 c0 -5 -2 -10 -4 -10 -3 0 -8 5
-11 10 -3 6 -1 10 4 10 6 0 11 -4 11 -10z m-20 -20 c0 -5 -2 -10 -4 -10 -3 0
-8 5 -11 10 -3 6 -1 10 4 10 6 0 11 -4 11 -10z m55 -110 c-3 -5 -12 -10 -18
-10 -7 0 -6 4 3 10 19 12 23 12 15 0z m1242 -12 c-3 -8 -6 -5 -6 6 -1 11 2 17
5 13 3 -3 4 -12 1 -19z m-1280 -14 c-3 -3 -12 -4 -19 -1 -8 3 -5 6 6 6 11 1
17 -2 13 -5z m1300 -36 c-3 -8 -6 -5 -6 6 -1 11 2 17 5 13 3 -3 4 -12 1 -19z
m-1480 -155 c-3 -10 -5 -2 -5 17 0 19 2 27 5 18 2 -10 2 -26 0 -35z m-197
-108 c0 -14 -2 -25 -4 -25 -2 0 -6 11 -8 25 -3 14 -1 25 3 25 5 0 9 -11 9 -25z
m1741 -72 c-12 -20 -14 -14 -5 12 4 9 9 14 11 11 3 -2 0 -13 -6 -23z m26 -35
c-3 -8 -6 -5 -6 6 -1 11 2 17 5 13 3 -3 4 -12 1 -19z m-10 -110 c-3 -8 -6 -5
-6 6 -1 11 2 17 5 13 3 -3 4 -12 1 -19z m-1750 -24 c-3 -3 -12 -4 -19 -1 -8 3
-5 6 6 6 11 1 17 -2 13 -5z m0 -50 c-3 -3 -12 -4 -19 -1 -8 3 -5 6 6 6 11 1
17 -2 13 -5z m1750 -46 c-3 -7 -5 -2 -5 12 0 14 2 19 5 13 2 -7 2 -19 0 -25z
m-5077 -164 c0 -3 -7 -1 -15 6 -8 7 -15 17 -15 22 0 5 7 3 15 -6 8 -8 15 -18
15 -22z m1840 32 c0 -2 -7 -7 -16 -10 -8 -3 -12 -2 -9 4 6 10 25 14 25 6z m45
-6 c3 -6 -1 -7 -9 -4 -18 7 -21 14 -7 14 6 0 13 -4 16 -10z m195 0 c0 -5 -5
-10 -11 -10 -5 0 -7 5 -4 10 3 6 8 10 11 10 2 0 4 -4 4 -10z m80 -4 c-7 -7
-13 -7 -20 0 -6 6 -3 10 10 10 13 0 16 -4 10 -10z m429 5 c7 -5 9 -11 5 -14
-5 -3 -15 1 -22 9 -14 16 -5 18 17 5z m81 -1 c0 -5 -2 -10 -4 -10 -3 0 -8 5
-11 10 -3 6 -1 10 4 10 6 0 11 -4 11 -10z m-170 -15 c-7 -9 -15 -13 -19 -10
-3 3 1 10 9 15 21 14 24 12 10 -5z m380 6 c0 -5 8 -12 18 -15 33 -11 157 -143
157 -169 1 -16 -4 -23 -12 -20 -8 3 -13 -2 -13 -13 0 -9 -2 -15 -5 -12 -3 3
-27 -17 -53 -43 -51 -53 -71 -59 -90 -29 -11 17 -8 24 25 54 47 42 41 56 -6
15 -19 -16 -36 -29 -40 -29 -3 0 6 11 21 25 15 13 24 25 20 28 -4 2 -1 2 5 1
7 -2 18 6 23 17 8 15 17 18 33 13 15 -4 4 12 -35 53 -55 56 -57 60 -43 80 14
20 14 22 -5 28 -21 7 -28 25 -10 25 6 0 10 -4 10 -9z m110 -1 c0 -5 -2 -10 -4
-10 -3 0 -8 5 -11 10 -3 6 -1 10 4 10 6 0 11 -4 11 -10z m65 0 c3 -5 2 -10 -4
-10 -5 0 -13 5 -16 10 -3 6 -2 10 4 10 5 0 13 -4 16 -10z m-40 -19 c-3 -6 -11
-11 -16 -11 -5 0 -4 6 3 14 14 16 24 13 13 -3z m-1148 -3 c-1 -5 27 -37 63
-73 49 -49 70 -64 85 -59 16 4 17 3 5 -5 -13 -10 -13 -12 0 -22 12 -8 11 -9
-5 -5 -16 5 -37 -10 -90 -64 -65 -66 -95 -84 -95 -59 0 5 -4 8 -8 5 -5 -3 -8
8 -8 24 0 17 2 27 5 25 7 -8 81 67 75 77 -3 4 3 5 13 1 10 -3 -9 22 -41 55
-57 58 -59 62 -43 80 9 10 15 21 12 23 -2 3 4 5 15 5 10 0 18 -4 17 -8z m368
-78 c46 -48 63 -59 79 -54 12 4 -16 -31 -64 -79 -47 -48 -90 -87 -96 -87 -6 0
-19 8 -28 19 -16 18 -14 21 39 73 l56 55 -58 56 c-55 53 -57 56 -40 75 9 10
14 23 10 27 -5 5 4 2 18 -7 15 -9 52 -44 84 -78z m113 69 c17 9 19 7 16 -17
-3 -30 23 -61 45 -54 8 3 11 0 7 -7 -4 -6 4 -25 18 -42 l26 -30 -33 -27 c-17
-14 -34 -28 -37 -30 -2 -1 2 -8 10 -13 12 -9 12 -10 -3 -5 -12 4 -29 -7 -53
-34 l-36 -40 -24 23 c-23 22 -23 22 -3 43 10 11 16 24 12 29 -5 4 -3 5 3 2 6
-3 25 9 43 27 l31 32 -56 57 -56 56 19 24 c16 23 20 24 35 10 12 -11 21 -12
36 -4z m607 11 c3 -5 1 -10 -4 -10 -6 0 -11 5 -11 10 0 6 2 10 4 10 3 0 8 -4
11 -10z m-895 -55 c29 -30 58 -51 63 -48 6 3 7 1 4 -4 -4 -6 0 -16 8 -23 21
-18 19 -28 -12 -55 -24 -21 -26 -26 -13 -35 12 -9 11 -10 -7 -5 -17 5 -28 -3
-54 -35 -33 -41 -62 -51 -73 -25 -3 9 -12 12 -23 8 -13 -4 -12 -1 5 15 14 12
21 26 16 33 -4 7 -3 9 3 6 10 -7 83 55 83 70 0 4 -22 30 -50 58 -48 48 -49 52
-34 73 8 12 18 22 22 22 4 0 32 -25 62 -55z m466 -11 c35 -36 67 -63 72 -60 5
3 8 -4 7 -16 -1 -11 -35 -54 -75 -94 -70 -69 -75 -72 -92 -57 -26 23 -23 32
24 80 23 23 43 52 45 63 3 23 -7 26 -25 8 -8 -8 -12 -9 -12 -1 0 6 6 14 13 16
8 3 -1 18 -25 42 -21 20 -38 43 -38 50 0 12 25 34 39 35 2 0 32 -30 67 -66z
m108 45 c10 -14 21 -19 32 -15 14 5 15 4 4 -9 -8 -9 -8 -15 -2 -15 6 0 14 5
17 10 4 6 11 8 16 5 5 -4 20 6 33 22 l25 28 63 -61 c59 -57 92 -80 111 -75 5
1 6 -3 2 -9 -3 -6 -11 -7 -17 -4 -7 5 -9 1 -5 -9 3 -9 3 -16 -1 -14 -4 1 -38
-28 -76 -65 -38 -38 -75 -68 -82 -68 -7 0 -18 10 -25 21 -10 19 -6 26 30 57
40 34 41 35 24 55 -18 19 -17 20 4 8 28 -14 33 -14 33 2 0 19 -92 102 -114
102 -30 0 -31 -23 -2 -36 14 -7 23 -16 20 -20 -7 -12 3 -11 29 2 21 10 21 10
3 -5 -11 -9 -17 -19 -13 -22 4 -4 12 -2 20 4 9 8 17 8 27 0 12 -8 12 -9 -2 -4
-10 3 -21 -1 -26 -10 -14 -26 -143 -154 -155 -154 -6 0 -19 8 -29 17 -18 16
-17 19 39 75 l57 58 -52 53 c-29 29 -52 56 -52 61 0 9 30 35 42 36 4 0 14 -10
22 -21z m64 -4 c-3 -3 -9 2 -12 12 -6 14 -5 15 5 6 7 -7 10 -15 7 -18z m382
16 c0 -12 132 -141 144 -141 5 0 -3 -10 -20 -22 -16 -13 -54 -49 -85 -81 l-56
-59 -22 23 c-21 22 -21 23 -2 43 10 12 17 27 15 34 -1 7 0 8 3 2 3 -8 9 -7 19
1 11 9 12 15 2 28 -10 13 -10 14 2 4 11 -10 17 -10 31 3 17 15 17 18 -3 44
-11 16 -26 26 -32 24 -7 -3 -23 4 -36 16 -13 11 -19 20 -15 20 5 0 17 -7 27
-17 10 -9 18 -12 18 -7 0 15 -59 63 -66 53 -3 -5 0 -9 6 -9 6 0 8 -5 5 -10 -5
-8 -12 -7 -22 1 -14 13 -6 23 22 29 6 1 19 9 30 16 22 16 35 18 35 5z m-985
-31 c3 -5 1 -10 -4 -10 -6 0 -11 5 -11 10 0 6 2 10 4 10 3 0 8 -4 11 -10z
m308 -4 c4 -10 1 -13 -9 -9 -15 6 -19 23 -5 23 5 0 11 -7 14 -14z m151 -1 c-4
-8 -8 -15 -10 -15 -2 0 -4 7 -4 15 0 8 4 15 10 15 5 0 7 -7 4 -15z m-2866 -26
c-3 -8 -7 -3 -11 10 -4 17 -3 21 5 13 5 -5 8 -16 6 -23z m3476 16 c-4 -8 -11
-12 -16 -9 -6 4 -5 10 3 15 19 12 19 11 13 -6z m-1174 -40 c30 -32 21 -32 -16
0 -16 14 -24 25 -18 25 6 0 21 -11 34 -25z m135 15 c-3 -5 -11 -10 -16 -10 -6
0 -7 5 -4 10 3 6 11 10 16 10 6 0 7 -4 4 -10z m150 0 c3 -5 1 -10 -4 -10 -6 0
-11 5 -11 10 0 6 2 10 4 10 3 0 8 -4 11 -10z m305 0 c0 -5 -2 -10 -4 -10 -3 0
-8 5 -11 10 -3 6 -1 10 4 10 6 0 11 -4 11 -10z m311 -7 c13 -17 13 -17 -6 -3
-11 8 -22 16 -24 17 -2 2 0 3 6 3 6 0 17 -8 24 -17z m-3211 -7 c0 -3 -4 -8
-10 -11 -5 -3 -10 -1 -10 4 0 6 5 11 10 11 6 0 10 -2 10 -4z m2625 -15 c3 -5
2 -12 -3 -15 -5 -3 -9 1 -9 9 0 17 3 19 12 6z m780 -11 c-3 -5 -12 -10 -18
-10 -7 0 -6 4 3 10 19 12 23 12 15 0z m-905 -20 c0 -5 -2 -10 -4 -10 -3 0 -8
5 -11 10 -3 6 -1 10 4 10 6 0 11 -4 11 -10z m2989 -11 c-22 -13 -31 -11 -17 5
7 8 17 12 22 9 4 -3 2 -9 -5 -14z m-2519 -2 c0 -2 -15 -13 -32 -26 l-33 -22
28 25 c26 24 37 31 37 23z m2537 -27 c-12 -18 -15 -19 -21 -5 -3 9 -2 14 3 11
5 -3 12 1 15 10 4 9 9 14 12 11 3 -3 -1 -15 -9 -27z m-2862 0 c-10 -11 -20
-18 -23 -16 -5 6 21 35 32 36 5 0 1 -9 -9 -20z m440 0 c-3 -5 -12 -10 -18 -10
-7 0 -6 4 3 10 19 12 23 12 15 0z m470 -18 c-3 -3 -11 0 -18 7 -9 10 -8 11 6
5 10 -3 15 -9 12 -12z m-788 -6 c0 -8 -6 -12 -15 -9 -11 5 -11 7 0 14 7 5 13
9 14 9 0 0 1 -6 1 -14z m2933 -16 c0 -5 -5 -10 -11 -10 -5 0 -7 5 -4 10 3 6 8
10 11 10 2 0 4 -4 4 -10z m-2355 -19 c-3 -6 -11 -11 -16 -11 -5 0 -4 6 3 14
14 16 24 13 13 -3z m722 -3 c-3 -8 -6 -5 -6 6 -1 11 2 17 5 13 3 -3 4 -12 1
-19z m-1352 -17 c3 -6 -3 -9 -14 -8 -11 0 -17 5 -15 9 7 11 22 10 29 -1z m303
-4 c8 -10 6 -13 -9 -13 -19 0 -24 7 -12 19 8 9 9 9 21 -6z m-1402 -44 c-15
-13 -35 -23 -44 -23 -9 1 -2 7 16 15 19 9 36 24 40 37 4 15 7 18 10 8 3 -7 -7
-24 -22 -37z m788 39 c2 -4 -4 -8 -14 -8 -10 0 -16 4 -14 8 3 4 9 8 14 8 5 0
11 -4 14 -8z m3401 -23 c11 -16 1 -19 -13 -3 -7 8 -8 14 -3 14 5 0 13 -5 16
-11z m-2845 -29 c0 -5 -5 -10 -11 -10 -5 0 -7 5 -4 10 3 6 8 10 11 10 2 0 4
-4 4 -10z m2887 -5 c8 -9 13 -18 11 -21 -3 -2 -13 5 -23 16 -21 23 -11 27 12
5z m-2627 -5 c0 -5 -2 -10 -4 -10 -3 0 -8 5 -11 10 -3 6 -1 10 4 10 6 0 11 -4
11 -10z m-506 -15 c3 -8 1 -15 -4 -15 -6 0 -10 7 -10 15 0 8 2 15 4 15 2 0 6
-7 10 -15z m316 1 c0 -2 -7 -7 -16 -10 -8 -3 -12 -2 -9 4 6 10 25 14 25 6z
m-3183 -58 c-3 -8 -6 -5 -6 6 -1 11 2 17 5 13 3 -3 4 -12 1 -19z m-30 -10 c-3
-8 -6 -5 -6 6 -1 11 2 17 5 13 3 -3 4 -12 1 -19z m0 -50 c-3 -8 -6 -5 -6 6 -1
11 2 17 5 13 3 -3 4 -12 1 -19z m1170 -30 c-3 -8 -6 -5 -6 6 -1 11 2 17 5 13
3 -3 4 -12 1 -19z m19 -59 c1 -25 -1 -28 -8 -15 -5 10 -7 24 -4 32 8 21 11 17
12 -17z m3724 -201 c0 -5 -9 -4 -20 2 -11 6 -20 12 -20 14 0 2 9 2 20 -1 11
-3 20 -9 20 -15z m190 -82 c-6 -6 -18 -5 -32 1 -21 10 -21 10 9 9 19 -1 28 -5
23 -10z m-36 -61 c-7 -16 -24 -21 -24 -6 0 8 7 13 27 20 1 1 0 -6 -3 -14z m89
-73 c15 -17 15 -18 -7 -17 -29 0 -41 10 -31 24 9 16 20 14 38 -7z m-4053 -2
c0 -5 -5 -10 -11 -10 -5 0 -7 5 -4 10 3 6 8 10 11 10 2 0 4 -4 4 -10z m4376
-43 c53 -46 23 -127 -47 -127 -66 0 -95 88 -43 129 34 27 57 26 90 -2z m-263
-45 c15 -16 15 -18 -1 -18 -10 0 -18 8 -18 18 0 10 1 18 2 18 0 0 8 -8 17 -18z
m-4188 -22 c-3 -5 -12 -10 -18 -10 -7 0 -6 4 3 10 19 12 23 12 15 0z m4230
-20 c3 -5 2 -10 -4 -10 -5 0 -13 5 -16 10 -3 6 -2 10 4 10 5 0 13 -4 16 -10z
m-5440 -10 c3 -5 1 -10 -4 -10 -6 0 -11 5 -11 10 0 6 2 10 4 10 3 0 8 -4 11
-10z m5409 -19 c4 -5 -3 -7 -14 -4 -23 6 -26 13 -6 13 8 0 17 -4 20 -9z m101
-29 c-3 -3 -11 0 -18 7 -9 10 -8 11 6 5 10 -3 15 -9 12 -12z m319 -3 c58 -46
9 -140 -64 -124 -62 14 -73 106 -16 133 32 16 51 14 80 -9z m-258 -51 c16 -18
19 -24 6 -14 -12 11 -25 16 -29 12 -4 -4 -1 -12 7 -17 13 -9 13 -10 0 -6 -8 2
-15 15 -15 30 -1 15 0 27 0 27 1 0 14 -15 31 -32z m84 -71 c0 -2 -10 -12 -21
-23 -22 -19 -22 -19 -10 4 10 18 31 31 31 19z m95 -87 c16 -16 26 -30 23 -30
-3 0 -20 14 -38 30 -18 17 -28 30 -23 30 5 0 22 -13 38 -30z m-4715 -5 c-7 -9
-15 -13 -17 -11 -7 7 7 26 19 26 6 0 6 -6 -2 -15z m4810 -82 l25 -28 -25 20
c-13 11 -33 28 -45 39 -19 18 -19 18 0 8 11 -6 31 -23 45 -39z m-4833 5 c-3
-8 -6 -5 -6 6 -1 11 2 17 5 13 3 -3 4 -12 1 -19z m4793 -8 c0 -5 -2 -10 -4
-10 -3 0 -8 5 -11 10 -3 6 -1 10 4 10 6 0 11 -4 11 -10z m85 -40 c3 -6 -1 -7
-9 -4 -18 7 -21 14 -7 14 6 0 13 -4 16 -10z m65 -56 c0 -8 -19 -13 -24 -6 -3
5 1 9 9 9 8 0 15 -2 15 -3z m66 -56 l29 -31 -37 28 c-39 28 -45 35 -30 35 5 0
21 -14 38 -32z m-5232 -19 c13 -7 30 -25 37 -42 35 -84 -95 -135 -133 -52 -15
34 -1 76 32 92 31 16 33 16 64 2z m132 -66 c-8 -15 -15 -25 -16 -21 0 12 23
58 27 54 3 -2 -2 -17 -11 -33z m5199 -3 c10 -11 16 -20 13 -20 -3 0 -13 9 -23
20 -10 11 -16 20 -13 20 3 0 13 -9 23 -20z m-5165 -10 c0 -5 -4 -10 -10 -10
-5 0 -10 5 -10 10 0 6 5 10 10 10 6 0 10 -4 10 -10z m5205 -30 c3 -5 2 -10 -4
-10 -5 0 -13 5 -16 10 -3 6 -2 10 4 10 5 0 13 -4 16 -10z m-5268 -52 c-3 -8
-6 -5 -6 6 -1 11 2 17 5 13 3 -3 4 -12 1 -19z m-26 -11 c-10 -9 -11 -8 -5 6 3
10 9 15 12 12 3 -3 0 -11 -7 -18z m5426 -50 c-7 -21 -32 -13 -33 10 -1 19 2
21 18 12 11 -6 17 -16 15 -22z m-5574 6 c28 -31 30 -66 7 -96 -42 -53 -130
-24 -130 43 0 17 9 39 20 50 25 25 81 26 103 3z m131 -19 c3 -8 2 -12 -4 -9
-6 3 -10 10 -10 16 0 14 7 11 14 -7z"/>
<path d="M2830 3960 c0 -5 5 -10 10 -10 6 0 10 5 10 10 0 6 -4 10 -10 10 -5 0
-10 -4 -10 -10z"/>
<path d="M1315 2808 c-11 -6 -26 -18 -32 -26 -17 -21 -18 -152 -1 -152 6 0 8
-3 5 -6 -4 -4 3 -15 15 -25 40 -35 192 -19 160 16 -4 5 -2 5 5 1 6 -3 14 -2
18 4 7 11 67 13 102 4 12 -3 25 -15 28 -25 6 -17 17 -19 123 -19 121 0 162 11
162 46 0 8 5 14 11 14 16 0 5 114 -14 143 -9 13 -30 27 -48 31 -56 11 -512 6
-534 -6z m64 -35 c0 -25 -1 -25 -8 -8 -5 11 -7 23 -4 28 8 14 13 7 12 -20z
m158 5 c-3 -8 -6 -5 -6 6 -1 11 2 17 5 13 3 -3 4 -12 1 -19z m20 0 c-3 -8 -6
-5 -6 6 -1 11 2 17 5 13 3 -3 4 -12 1 -19z m234 -5 c13 -15 12 -15 -8 -4 -24
12 -29 21 -14 21 5 0 15 -7 22 -17z m-318 -16 c6 3 33 5 60 4 33 -2 47 1 42 8
-3 6 -1 11 4 11 6 0 11 -4 11 -10 0 -5 6 -10 13 -10 12 0 54 -42 48 -48 -1 -1
0 -8 2 -15 3 -6 6 -3 6 8 1 12 -4 26 -10 32 -8 8 -8 16 0 30 6 10 11 12 11 6
0 -9 18 -13 58 -13 48 0 62 -4 80 -23 19 -20 21 -28 11 -55 -12 -36 -30 -44
-93 -41 -25 2 -49 -1 -53 -5 -5 -4 -18 14 -30 41 -19 42 -22 45 -22 21 -1 -16
4 -28 9 -28 6 0 10 -7 10 -16 0 -13 -13 -15 -85 -13 -46 2 -87 1 -90 -3 -8 -8
-68 6 -72 17 -1 6 1 17 7 25 8 12 11 12 28 -3 10 -9 22 -14 25 -10 4 3 -7 15
-24 25 -39 24 -38 61 4 66 15 2 28 9 28 15 1 7 3 4 6 -6 3 -10 9 -14 16 -10z
m-103 -137 c0 -5 -2 -10 -4 -10 -3 0 -8 5 -11 10 -3 6 -1 10 4 10 6 0 11 -4
11 -10z"/>
<path d="M1416 2731 c-3 -5 1 -12 10 -15 20 -8 29 -1 19 13 -8 13 -22 14 -29
2z"/>
<path d="M1466 2724 c-8 -22 -8 -26 4 -19 7 4 8 -3 4 -21 -5 -19 -4 -25 5 -20
13 8 15 62 2 70 -5 3 -12 -1 -15 -10z"/>
<path d="M1516 2733 c-13 -13 -5 -23 17 -23 14 0 29 -10 39 -27 l16 -27 -1 37
c-1 28 -5 36 -15 32 -7 -3 -22 -1 -31 5 -10 5 -21 6 -25 3z"/>
<path d="M1702 2720 c0 -14 2 -19 5 -12 2 6 2 18 0 25 -3 6 -5 1 -5 -13z"/>
<path d="M1683 2698 c1 -39 10 -49 21 -23 3 8 1 15 -4 15 -5 0 -11 10 -13 23
-3 12 -4 5 -4 -15z"/>
<path d="M1731 2698 c-1 -25 4 -38 12 -38 18 0 37 21 37 41 0 23 -20 35 -30
19 -6 -10 -9 -9 -13 1 -3 8 -6 -3 -6 -23z"/>
<path d="M1512 2678 c6 -17 38 -19 38 -2 0 8 -9 14 -21 14 -11 0 -19 -5 -17
-12z"/>
<path d="M4700 2800 c-50 -50 -55 -139 -11 -188 l30 -32 271 0 271 0 24 26
c21 23 25 37 25 94 0 52 -5 73 -19 91 l-19 24 -276 3 c-268 3 -275 3 -296 -18z
m80 -32 c0 -12 -28 3 -34 18 -4 11 -2 12 14 1 11 -6 20 -15 20 -19z m80 22 c0
-5 -5 -10 -11 -10 -5 0 -7 5 -4 10 3 6 8 10 11 10 2 0 4 -4 4 -10z m120 1 c0
-5 -7 -12 -16 -15 -14 -5 -15 -4 -4 9 14 17 20 19 20 6z m113 -6 c-3 -9 -8
-14 -10 -11 -3 3 -2 9 2 15 9 16 15 13 8 -4z m87 5 c0 -5 -10 -10 -22 -9 -22
0 -22 1 -3 9 11 5 21 9 23 9 1 1 2 -3 2 -9z m19 -26 c-12 -15 -8 -16 39 -13
32 3 53 0 56 -7 6 -16 -22 -54 -40 -54 -8 0 -14 -4 -14 -10 0 -5 7 -10 15 -10
8 0 15 5 15 11 0 6 6 9 13 7 6 -3 12 -11 12 -19 0 -10 -16 -16 -51 -19 l-50
-5 15 26 c15 26 9 65 -8 55 -5 -4 -12 -19 -16 -35 -10 -48 -30 -57 -45 -21
-16 38 -45 42 -36 5 7 -28 18 -26 -131 -27 -63 -1 -79 2 -91 18 -14 18 -14 18
-8 -1 6 -19 1 -20 -84 -19 -83 1 -123 10 -92 21 20 7 15 63 -5 63 -17 1 -17 1
0 14 9 7 27 12 40 11 12 -1 28 -3 35 -4 6 0 12 -10 12 -21 0 -11 5 -20 10 -20
6 0 8 10 5 23 -6 21 -3 22 40 19 38 -3 45 -7 41 -21 -4 -12 -2 -11 9 4 13 16
26 19 86 17 58 -2 74 0 86 15 14 17 14 17 9 1 -5 -16 2 -18 50 -18 55 0 83 14
85 42 0 10 2 10 6 0 3 -7 -1 -20 -8 -28z m-269 12 c0 -11 -19 -15 -25 -6 -3 5
1 10 9 10 9 0 16 -2 16 -4z"/>
<path d="M5150 2715 c1 -26 2 -28 11 -12 8 14 8 22 0 30 -8 8 -11 3 -11 -18z"/>
<path d="M4820 2720 c0 -5 9 -10 20 -10 11 0 20 -5 20 -12 0 -6 3 -8 6 -5 9 9
-15 37 -32 37 -8 0 -14 -4 -14 -10z"/>
<path d="M4907 2723 c-2 -5 -3 -17 -3 -28 1 -27 36 -33 43 -6 5 18 7 19 20 5
13 -12 13 -17 1 -32 -12 -15 -11 -16 5 -3 18 14 24 71 7 71 -5 0 -6 -8 -3 -17
6 -15 4 -16 -9 -6 -8 7 -18 10 -21 6 -4 -3 -7 -1 -7 5 0 13 -27 17 -33 5z m33
-27 c0 -3 -4 -8 -10 -11 -5 -3 -10 -1 -10 4 0 6 5 11 10 11 6 0 10 -2 10 -4z"/>
<path d="M5020 2720 c0 -5 7 -10 16 -10 8 0 12 5 9 10 -3 6 -10 10 -16 10 -5
0 -9 -4 -9 -10z"/>
<path d="M5059 2709 c-8 -16 -8 -24 2 -33 9 -8 10 -8 5 2 -4 6 -3 12 3 12 5 0
9 9 8 20 -2 25 -4 25 -18 -1z"/>
<path d="M5105 2720 c-3 -5 -1 -10 4 -10 6 0 11 5 11 10 0 6 -2 10 -4 10 -3 0
-8 -4 -11 -10z"/>
<path d="M5240 2720 c0 -5 9 -10 21 -10 11 0 17 5 14 10 -3 6 -13 10 -21 10
-8 0 -14 -4 -14 -10z"/>
<path d="M4772 2689 c2 -7 10 -15 17 -17 8 -3 12 1 9 9 -2 7 -10 15 -17 17 -8
3 -12 -1 -9 -9z"/>
<path d="M4735 2680 c3 -5 8 -10 11 -10 2 0 4 5 4 10 0 6 -5 10 -11 10 -5 0
-7 -4 -4 -10z"/>
<path d="M4820 2680 c0 -5 7 -10 15 -10 8 0 15 5 15 10 0 6 -7 10 -15 10 -8 0
-15 -4 -15 -10z"/>
<path d="M5015 2680 c-3 -5 1 -10 9 -10 9 0 16 5 16 10 0 6 -4 10 -9 10 -6 0
-13 -4 -16 -10z"/>
<path d="M4530 2511 l-34 -6 34 -32 c19 -18 38 -33 43 -33 4 0 7 18 7 40 0 22
-3 39 -7 39 -5 -1 -24 -4 -43 -8z"/>
<path d="M4536 2215 l-39 -11 39 -32 39 -33 3 26 c7 55 1 62 -42 50z"/>
<path d="M3690 1870 c0 -5 5 -10 10 -10 6 0 10 5 10 10 0 6 -4 10 -10 10 -5 0
-10 -4 -10 -10z"/>
<path d="M3090 2010 c0 -5 5 -10 11 -10 5 0 7 5 4 10 -3 6 -8 10 -11 10 -2 0
-4 -4 -4 -10z"/>
<path d="M5370 1070 c0 -5 5 -10 10 -10 6 0 10 5 10 10 0 6 -4 10 -10 10 -5 0
-10 -4 -10 -10z"/>
<path d="M6330 190 c0 -5 5 -10 10 -10 6 0 10 5 10 10 0 6 -4 10 -10 10 -5 0
-10 -4 -10 -10z"/>
</g>
</svg>
